HIERARCHY
ROOT Hips
{
	OFFSET -3.958830 18.904000 13.208200
	CHANNELS 6 Xposition Yposition Zposition Zrotation Yrotation Xrotation 
	JOINT LHipJoint
	{
		OFFSET 0.000000 0.000000 0.000000
		CHANNELS 3 Zrotation Yrotation Xrotation
		JOINT LeftUpLeg
		{
			OFFSET 1.800000 -1.400000 0.085000
			CHANNELS 3 Zrotation Yrotation Xrotation
			JOINT LeftLeg
			{
				OFFSET 2.215000 -6.000000 0.000000
				CHANNELS 3 Zrotation Yrotation Xrotation
				JOINT LeftFoot
				{
					OFFSET 2.500000 -6.900000 0.000000
					CHANNELS 3 Zrotation Yrotation Xrotation
					JOINT LeftToeBase
					{
						OFFSET 0.200000 -0.500000 1.950000
						CHANNELS 3 Zrotation Yrotation Xrotation
						End Site
						{
							OFFSET 0.000000 0.000000 0.000000
						}
					}
				}
			}
		}
	}
	JOINT RHipJoint
	{
		OFFSET 0.000000 0.000000 0.000000
		CHANNELS 3 Zrotation Yrotation Xrotation
		JOINT RightUpLeg
		{
			OFFSET -1.800000 -1.400000 0.085000
			CHANNELS 3 Zrotation Yrotation Xrotation
			JOINT RightLeg
			{
				OFFSET -2.215000 -6.000000 0.000000
				CHANNELS 3 Zrotation Yrotation Xrotation
				JOINT RightFoot
				{
					OFFSET -2.500000 -6.900000 0.000000
					CHANNELS 3 Zrotation Yrotation Xrotation
					JOINT RightToeBase
					{
						OFFSET -0.200000 -0.500000 1.950000
						CHANNELS 3 Zrotation Yrotation Xrotation
						End Site
						{
							OFFSET 0.000000 0.000000 0.000000
						}
					}
				}
			}
		}
	}
	JOINT LowerBack
	{
		OFFSET 0.000000 0.000000 0.000000
		CHANNELS 3 Zrotation Yrotation Xrotation
		JOINT Spine
		{
			OFFSET -0.087000 1.940000 -0.288900
			CHANNELS 3 Zrotation Yrotation Xrotation
			JOINT Spine1
			{
				OFFSET 0.000000 1.950000 0.060000
				CHANNELS 3 Zrotation Yrotation Xrotation
				JOINT Neck
				{
					OFFSET 0.000000 0.000000 0.000000
					CHANNELS 3 Zrotation Yrotation Xrotation
					JOINT Neck1
					{
						OFFSET 0.000000 1.600000 0.340000
						CHANNELS 3 Zrotation Yrotation Xrotation
						JOINT Head
						{
							OFFSET 0.000000 1.667000 -0.240000
							CHANNELS 3 Zrotation Yrotation Xrotation
							End Site
							{
								OFFSET 0.000000 0.000000 0.000000
							}
						}
					}
				}
				JOINT LeftShoulder
				{
					OFFSET 0.000000 0.000000 0.000000
					CHANNELS 3 Zrotation Yrotation Xrotation
					JOINT LeftArm
					{
						OFFSET 2.700000 1.550000 -0.730000
						CHANNELS 3 Zrotation Yrotation Xrotation
						JOINT LeftForeArm
						{
							OFFSET 5.450000 0.000000 0.000000
							CHANNELS 3 Zrotation Yrotation Xrotation
							JOINT LeftHand
							{
								OFFSET 3.450000 0.000000 0.000000
								CHANNELS 3 Zrotation Yrotation Xrotation
								JOINT LeftHandIndex1
								{
									OFFSET 0.750000 0.000000 0.000000
									CHANNELS 3 Zrotation Yrotation Xrotation
									End Site
									{
										OFFSET 0.000000 0.000000 0.000000
									}
								}
							}
						}
					}
				}
				JOINT RightShoulder
				{
					OFFSET 0.000000 0.000000 0.000000
					CHANNELS 3 Zrotation Yrotation Xrotation
					JOINT RightArm
					{
						OFFSET -2.700000 1.550000 -0.730000
						CHANNELS 3 Zrotation Yrotation Xrotation
						JOINT RightForeArm
						{
							OFFSET -5.450000 0.000000 0.000000
							CHANNELS 3 Zrotation Yrotation Xrotation
							JOINT RightHand
							{
								OFFSET -3.450000 0.000000 0.000000
								CHANNELS 3 Zrotation Yrotation Xrotation
								JOINT RightHandIndex1
								{
									OFFSET -0.750000 0.000000 0.000000
									CHANNELS 3 Zrotation Yrotation Xrotation
									End Site
									{
										OFFSET 0.000000 0.000000 0.000000
									}
								}
							}
						}
					}
				}
			}
		}
	}
}
MOTION
Frames: 10
Frame Time: 0.016667
12.061120 15.740940 -18.253290 3.340791 43.233103 -4.590193 -15.442576 10.204333 4.545960 25.846012 -11.370906 -18.151092 -34.833582 23.833273 39.293303 1.224349 12.145483 0.330660 0.620060 0.737490 0.132090 18.517747 -9.560938 2.769267 -35.332741 -7.981682 -30.569531 10.507460 -17.149038 42.668496 -0.940194 -8.626628 0.922648 0.589950 0.320770 0.084930 -3.890185 -0.091676 -9.020381 5.787358 -7.505890 15.719567 -4.475131 -5.933364 31.331289 3.933088 4.031738 -20.311609 8.078005 -14.076831 24.980650 7.663920 -16.332330 -17.878640 6.885163 -40.392668 12.039950 -30.979859 -16.821029 0.569094 12.799742 5.782493 -0.937744 -4.022109 3.037549 0.172030 -0.032580 0.044820 0.295810 -13.358899 43.680491 18.428384 49.764580 17.992204 2.523529 -1.735151 -14.803046 -0.305628 2.683280 -1.549335 -0.061430 0.520240 -0.041700 0.205580 
12.037360 15.641260 -18.153840 0.468446 38.682213 -2.608190 -15.457698 9.700271 5.005318 32.785405 -8.681807 -19.513550 -42.632018 26.086656 33.268634 1.379618 12.346585 0.288477 0.360640 0.330400 0.154130 18.642349 -8.559820 3.428353 -36.091423 -6.505367 -34.599167 18.792361 -20.695788 41.230705 -1.039095 -9.211692 0.775674 0.293200 0.253620 0.167030 -3.731752 -0.484798 -9.479975 9.834377 -7.408890 15.965035 -4.029306 -6.120365 20.635951 3.055101 4.351614 -18.015213 7.978969 -16.487477 23.190038 2.746840 -15.449860 -15.643830 -3.701622 -30.850141 9.720585 -28.027769 -14.060066 0.967909 10.815317 4.208461 -0.611628 -4.098273 2.907951 0.239220 0.011810 0.038500 0.134650 -3.242960 29.909385 15.538276 43.888655 8.849194 1.344223 -8.525454 -6.733870 0.868274 2.682571 -1.446809 -0.089620 0.343590 0.056020 0.080950 
11.928600 15.672860 -18.075320 1.956775 38.715290 -3.409952 -15.562558 10.564531 4.844893 29.698647 -9.809264 -18.420291 -36.654119 24.237022 36.373116 1.315723 12.023132 0.311556 0.402520 0.375440 0.200130 18.380475 -8.942604 3.061135 -32.197318 -6.354220 -35.542187 10.930574 -18.444812 46.201911 -1.041498 -8.949791 0.825498 0.250960 0.120580 0.242970 -3.242741 -1.367908 -9.244958 7.083982 -7.595399 20.326363 -3.176955 -6.914922 18.676629 3.366382 5.074557 -18.622739 9.157779 -17.061253 22.414310 2.654200 -14.676250 -17.402460 -4.864998 -28.293148 9.014155 -23.974984 -12.279437 -0.373532 14.091324 3.332643 -0.788271 -4.056469 3.018828 0.275630 -0.048370 0.140370 0.116180 -3.412588 26.981072 16.434441 42.274029 3.216286 -1.495801 -13.332145 1.303624 -0.190942 2.566595 -1.542002 0.012500 0.202220 0.014310 0.068370 
11.711820 15.703070 -17.921170 0.553470 26.125365 -4.984036 -15.574270 11.035070 4.717313 32.633278 -5.337827 -11.365895 -37.679535 24.365969 30.954587 1.437265 11.589354 0.474291 0.389980 0.374270 0.198800 18.272484 -8.920141 3.274209 -22.867445 1.416169 -41.330703 5.568913 -13.710308 51.099208 -0.994786 -8.274586 1.120456 0.166860 0.042790 0.241050 -3.062310 -1.338073 -9.195608 6.839651 -3.952733 25.075105 -1.189843 -3.088032 14.650239 2.332890 4.273849 -18.590705 7.823260 -16.045323 24.256403 4.302400 -13.686450 -18.192480 -5.597732 -24.723753 8.426860 -20.987138 -9.624736 -0.739216 14.148145 4.090962 -0.455838 -3.988474 3.024182 0.297060 -0.121220 0.210520 0.126220 -0.611345 25.256169 16.212088 37.272081 -0.336593 -5.215615 -21.900524 4.645776 -1.697034 2.622606 -1.639697 0.079620 0.126910 -0.043730 0.090740 
11.606410 15.768900 -17.822560 2.306346 20.226184 -9.336100 -15.490488 11.609934 4.042264 30.003160 -3.646621 -1.761806 -33.929551 22.672029 29.618173 1.318967 11.348443 0.638456 0.414380 0.469470 0.081140 18.235497 -9.497388 3.075436 -20.173940 3.909063 -37.779459 3.501654 -10.842116 51.576764 -0.876603 -7.981997 1.235215 0.322780 0.256600 0.231370 -3.183162 -0.959096 -8.599234 4.643397 -3.193690 27.688542 -2.601150 -2.019435 27.515719 3.063875 2.607147 -22.485726 7.165287 -10.373147 19.912922 6.670280 -10.444910 -16.413370 5.044131 -25.729070 10.022394 -22.940488 -3.186555 -2.378620 17.949907 -1.648386 -1.324623 -4.062700 3.150756 0.172520 0.017300 0.076330 0.189400 -11.324292 32.862792 20.916409 37.710303 3.854079 -4.355015 -22.202036 -1.388605 -1.842438 2.679434 -1.837580 0.017360 0.243990 0.018080 0.153790 
11.473940 15.822020 -17.620010 3.242717 16.233892 -10.899775 -15.455295 11.958617 3.557420 28.481141 -2.572453 4.021354 -29.701572 20.807289 28.355045 1.217050 11.034092 0.868102 0.403280 0.505430 -0.016180 18.231934 -9.591663 3.153959 -18.297786 5.447555 -34.824375 7.891616 -12.381037 51.667464 -0.903885 -8.459027 1.137697 0.422750 0.459430 0.199210 -3.220363 -1.079500 -8.292304 2.222613 -3.389679 26.829844 -4.163505 -1.868363 33.502937 3.132449 2.172958 -23.400103 6.890586 -8.920456 17.851845 6.603720 -10.775950 -13.228230 15.385418 -21.142875 7.664073 -24.273148 -5.536285 -0.953625 9.430388 11.158473 -0.312932 -4.631917 2.756720 0.008750 0.159240 -0.072770 0.255750 -20.809557 35.098507 24.762503 39.997919 6.007670 -2.512712 -21.000311 -5.606382 -1.471781 2.757228 -1.915109 -0.035640 0.359530 0.044590 0.227790 
11.348720 15.895870 -17.387760 2.708833 10.426086 -10.701379 -15.518422 12.593472 3.317939 27.708911 -0.707025 8.421615 -25.402627 18.435099 25.135862 1.172463 10.249480 1.153272 0.374630 0.419280 0.031310 18.089543 -9.466893 3.406409 -16.176119 7.552625 -33.203126 11.337220 -12.904505 49.560750 -0.965716 -8.225611 1.235086 0.286730 0.320910 0.239030 -2.890808 -1.912199 -8.323080 2.598100 -1.523681 28.317313 -2.138976 -0.720554 25.342772 3.100322 0.372366 -21.667277 3.003441 -9.929182 21.811006 5.314210 -11.237150 -14.556730 8.371601 -18.687391 4.390064 -15.255448 -10.444656 -3.275906 4.435482 26.457428 -0.481836 -4.955581 2.546891 0.105980 0.062300 0.026600 0.219970 -14.261093 28.760858 23.097078 25.637958 -1.539300 1.154447 -9.069651 -4.204938 -0.030275 2.753187 -1.407259 0.025380 0.244660 0.017350 0.195470 
11.192680 16.004290 -17.157530 3.051012 6.656779 -13.986079 -15.414190 13.067507 2.985480 26.086473 0.740191 15.434549 -18.996847 15.962009 23.293528 0.935844 9.960294 1.394105 0.135650 0.089360 -0.147070 18.113194 -9.873246 3.213129 -14.498072 8.381110 -27.197312 12.742558 -12.340585 47.773843 -0.793454 -8.138063 1.292287 0.241780 0.633730 0.180740 -3.079450 -1.889459 -7.997609 -0.252137 -3.720515 29.050875 -7.342968 -0.983523 32.060243 3.833268 1.352380 -23.763522 4.845884 -4.444109 19.911784 7.850040 -8.287740 -9.777540 19.738142 -13.766213 7.736552 -20.381237 3.242250 -1.992761 -1.353080 14.506871 -2.118333 -4.881254 2.082356 0.076340 0.230920 -0.223240 0.188070 -26.887419 32.364179 25.406275 23.751674 9.056284 3.053741 6.357356 -12.594296 -2.524939 2.578133 -0.681292 -0.224840 0.395830 0.224530 0.167650 
11.068630 16.096200 -16.912820 2.378707 3.599416 -14.636897 -15.449484 13.490359 2.895235 24.872278 1.566346 19.478346 -13.159439 13.321686 20.150528 0.923209 9.206406 1.694475 0.101870 0.063820 -0.114210 18.015705 -10.036514 3.155763 -12.288774 8.822374 -23.896511 12.704033 -11.721985 46.375193 -0.751870 -7.920339 1.408948 0.187560 0.611970 0.233240 -2.861961 -2.128176 -7.883159 -0.336921 -3.247727 30.868500 -6.455478 -2.021891 27.559071 4.963724 1.410212 -23.827416 5.300105 -2.748596 19.759354 4.970600 -5.317000 -7.218430 16.987926 -9.079088 6.788062 -17.858994 8.080333 -1.536704 1.145842 9.666057 -1.232847 -4.906723 2.183693 -0.002980 0.300580 -0.222270 0.168630 -27.272804 28.325097 25.261374 20.605351 9.211611 4.206293 6.441000 -13.060690 -2.334530 2.614393 -0.792020 -0.171240 0.288180 0.186550 0.156420 
11.026270 16.114540 -16.538540 -2.873132 7.070112 -1.459399 -15.320253 13.257393 2.530192 26.873515 -0.827059 6.657205 -7.499517 10.155915 17.590530 0.499654 7.378063 2.178092 -0.079910 -0.205760 -0.084110 18.105171 -9.671036 4.184613 -12.649786 8.644444 -35.580241 18.147467 -14.547754 41.968777 -0.736519 -7.651197 1.498380 -0.098530 0.426350 0.294000 -3.167044 -1.812606 -8.485744 9.718134 -4.301267 18.725394 -2.423275 -2.657064 5.965774 3.594440 2.130223 -18.513249 4.335706 -10.486977 24.121232 -3.991470 -8.237070 -3.540800 0.749450 -10.251124 7.421150 -1.497853 6.642029 -0.141792 2.006993 5.908427 -0.957355 -4.689866 2.392619 0.050640 0.253550 -0.130150 0.053350 -10.003905 13.729069 15.628639 6.396348 -1.651458 0.903739 -7.147860 0.851694 -0.134575 2.743464 -1.241947 -0.085430 0.098370 0.203730 0.099280 
